# xmcd
#
# Track frame offsets:
# 150
# 14517
# 27412
# 42292
# 56277
# 73535
# 88897
# 104310
# 122925
# 139635
#
# Disc length: 2006 seconds
#
#
# Revision: 0
# Processed by: cddbd v1.4PL0 Copyright (c) Steve Scherf et al.
# Submitted via: FreeRIP 2.30 
#
DISCID=8707d40a
DTITLE=Various Artist - Brasil Super Sucessos
DYEAR=1900
DGENRE=Country
TTITLE0=Belmonte e Amaraí - Saudade da Minha Terra
TTITLE1=Sergio Reis - João de Barro
TTITLE2=Palmeira e Bia - Boneca Cobiçada
TTITLE3=Mario Zan - Chalana
TTITLE4=Pedro Bento e Zé da Estrada - Mágoa de Boiadeiro
TTITLE5=Luizinho e Limeira - O Menino da Porteira
TTITLE6=Tonico e Tinoco - Viola Cabocla
TTITLE7=Renato Teixeira - Romaria
TTITLE8=Tavares e Zé Negrão - Rio de Lágrimas
TTITLE9=Inezita Barroso - Marvada Pinga
EXTD=
EXTT0=
EXTT1=
EXTT2=
EXTT3=
EXTT4=
EXTT5=
EXTT6=
EXTT7=
EXTT8=
EXTT9=
PLAYORDER=
